<svg xmlns="http://www.w3.org/2000/svg" width="1000" height="1000"><svg xmlns="http://www.w3.org/2000/svg" xmlns:xlink="http://www.w3.org/1999/xlink" xml:space="preserve" id="SvgjsSvg1000" x="0px" y="0px" version="1.1" viewBox="0 0 1000 1000"><style>@media (prefers-color-scheme:light){:root{filter:none}}@media (prefers-color-scheme:dark){:root{filter:none}}</style><path d="M2416.5 4099.2V1906h-516.7l-516.7 2.3v-3802.9h1033.4v-2617.9c0-45.9 218.2 160.8 1189.6 1132.2C4258.3-2728.1 4798-2193 4804.9-2193s11.5-516.7 11.5-1148.2v-1148.2h367.3v1148.2c0 631.5 4.6 1148.2 11.5 1148.2s546.6-535.1 1198.8-1187.3L7583.5-4570v2675.4H8617L8612.4 4.6l-6.9 1901.5H7595l-6.9 1332-4.6 1332-1201-1201.2-1198.8-1198.7v2296.4h-367.4l2.3-1118.4c0-617.8-4.6-1129.9-9.2-1141.4-6.9-9.2-546.6 516.7-1201.1 1171.2L2416.5 4570zm1853.2-1910.7 282.5-282.5H2783.9v1775.1l604-604c330.7-332.8 728-732.4 881.8-888.6m2941.8 597.1-6.9-879.6h-868.1c-475.4 0-863.5 6.9-858.9 18.4 6.9 25.3 1701.7 1733.8 1722.4 1736.1 9.2 2.4 13.8-392.6 11.5-874.9M4515.4 1527.2c6.9-6.9-463.9-489.2-1042.6-1067.9L2416.5-597.1v-930.1h-666V-4.6c0 838.2 4.6 1529.5 9.2 1534.1 13.7 13.7 2739.7 11.4 2755.7-2.3M8244.9 6.9l4.6-1534.1h-666v930.1L6527.2 459.3c-581 581-1056.4 1061-1056.4 1067.9s622.3 11.5 1384.8 11.5H8238zM4816.3-199.8v-1453.7l-1015-1012.7-1017.3-1015v2923.5L3787.5 245.7C4341 799.2 4798 1251.6 4804.8 1251.6c6.9 0 11.5-654.5 11.5-1451.4m1396.2 445.5L7216.1-757.8l-4.6-1453.7-6.9-1456-1008.1 1008.2L5186-1653.5v1453.7c-2.3 796.9 2.3 1451.4 9.2 1451.4s463.9-452.4 1017.3-1005.9" style="fill:#20808d" transform="matrix(.1 0 0 -.1 0 500)"/></svg></svg>